# xmcd
#
# Track frame offsets: 
#        150
#        20700
#        39150
#        68034
#        86317
#        109061
#        128843
#        152035
#        171026
#        191449
#
# Disc length: 2787 seconds
#
# Revision: 0
# Processed by: cddbd v1.5.1PL2 Copyright (c) Steve Scherf et al.
# Submitted via: ExactAudioCopy v0.95b4
#
DISCID=740ae10a
DTITLE=The Unseen Guest - Out There
DYEAR=2004
DGENRE=Rock
TTITLE0=Let me in
TTITLE1=In the Black
TTITLE2=Anywhere Somewhere
TTITLE3=Listen my Son
TTITLE4=Mangala Express
TTITLE5=Sandalista
TTITLE6=Out There
TTITLE7=Circle in the Dirt
TTITLE8=One Down
TTITLE9=Never Enough
EXTD=
EXTT0=
EXTT1=
EXTT2=
EXTT3=
EXTT4=
EXTT5=
EXTT6=
EXTT7=
EXTT8=
EXTT9=
PLAYORDER=
